<svg width="37" height="37" viewBox="0 0 37 37" fill="none" xmlns="http://www.w3.org/2000/svg">
<path d="M17.579 36.0002H14.1196C9.79447 36.0002 7.63189 36.0002 6.13246 34.7647C4.63118 33.531 4.26461 31.4485 3.52963 27.2835L1.31179 14.7202C0.976532 12.8215 0.808905 11.873 1.34679 11.25C1.88283 10.627 2.87017 10.627 4.84302 10.627H32.1571C34.1299 10.627 35.1173 10.627 35.6533 11.25C36.1912 11.873 36.0217 12.8215 35.6883 14.722L35.1744 17.627" stroke="black" stroke-width="2" stroke-linecap="round" stroke-linejoin="round"/>
<path d="M28.6318 10.625C28.6318 8.07229 27.5644 5.62413 25.6644 3.8191C23.7644 2.01406 21.1875 1 18.5005 1C15.8135 1 13.2365 2.01406 11.3365 3.8191C9.43654 5.62413 8.36914 8.07229 8.36914 10.625M21.5251 22.7735C23.7485 21.4943 25.6882 22.0088 26.8542 22.8313C27.3313 23.1673 27.5708 23.3352 27.7108 23.3352C27.8508 23.3352 28.0902 23.1673 28.5673 22.8313C29.7334 22.0088 31.673 21.4943 33.8964 22.7735C36.8142 24.4535 37.4737 29.9922 30.7465 34.6647C29.4626 35.5555 28.8234 36 27.7108 36C26.5982 36 25.959 35.5555 24.6769 34.6647C17.9479 29.9922 18.6073 24.4518 21.5251 22.7735Z" stroke="black" stroke-width="2" stroke-linecap="round" stroke-linejoin="round"/>
</svg>
