<svg width="17" height="10" viewBox="0 0 17 10" fill="none" xmlns="http://www.w3.org/2000/svg">
<path d="M9.02944 9.77307L16.798 1.61896C16.9277 1.4829 17 1.30214 17 1.11417C17 0.926198 16.9277 0.74544 16.798 0.609385L16.7892 0.600606C16.7263 0.53442 16.6506 0.481718 16.5668 0.445704C16.4829 0.409692 16.3926 0.39112 16.3013 0.39112C16.21 0.39112 16.1197 0.409692 16.0358 0.445704C15.9519 0.481718 15.8762 0.53442 15.8134 0.600606L8.49837 8.27919L1.18631 0.600606C1.12344 0.53442 1.04776 0.481718 0.963882 0.445704C0.880005 0.409692 0.789679 0.39112 0.698397 0.39112C0.607117 0.39112 0.516788 0.409692 0.432911 0.445704C0.349033 0.481718 0.273357 0.53442 0.210487 0.600606L0.201708 0.609385C0.0720215 0.74544 -0.000326157 0.926198 -0.000326157 1.11417C-0.000326157 1.30214 0.0720215 1.4829 0.201708 1.61896L7.97023 9.77307C8.03855 9.84478 8.12072 9.90187 8.21175 9.94088C8.30279 9.97989 8.4008 10 8.49984 10C8.59888 10 8.69689 9.97989 8.78792 9.94088C8.87896 9.90187 8.96113 9.84478 9.02944 9.77307Z" fill="black"/>
</svg>
