<svg xmlns="http://www.w3.org/2000/svg" viewBox="0 0 35 35">
  <path d="M 11.916 6.453 C 11.187 5.64 2.817 15.3 2.425 14.235 C 2.033 13.169 4.976 6.31 4.981 5.157 C 4.981 2.825 2.663 6.306 4.132 4.658 C 5.6 3.009 0.506 14.269 2.583 14.269 C 5.493 14.269 1.092 11.797 2.437 14.444 L 25.896 17.561 C 26.58 16.215 21.016 4.044 22.21 3.266 C 23.404 2.489 11.051 11.29 12.431 11.293 C 14.508 11.293 29.11 15.62 30.578 17.269 C 32.047 18.917 29.192 6.542 29.192 8.874 C 29.192 11.294 5.453 15.67 4.09 17.222 L 17.496 32.077 L 11.916 6.453 Z M 32.16 18.548 C 33.91 16.563 34.996 13.873 34.996 10.874 C 34.996 7.994 33.978 5.231 32.164 3.195 C 30.35 1.158 27.89 0.014 25.325 0.014 C 22.102 0.014 19.246 1.772 17.496 4.503 C 16.603 3.11 15.427 1.976 14.065 1.195 C 12.704 0.414 11.196 0.01 9.668 0.014 C 7.103 0.014 4.643 1.158 2.829 3.195 C 1.015 5.231 -0.004 7.994 -0.004 10.874 C -0.004 13.873 1.083 16.563 2.833 18.548 L 17.496 35.014 L 32.16 18.548 Z" style="stroke-width: 1; paint-order: stroke markers;" fill="#196950"/>
</svg>