<svg width="43" height="42" viewBox="0 0 43 42" fill="none" xmlns="http://www.w3.org/2000/svg">
<path d="M21.1133 0C32.7019 0 42.0958 9.39384 42.0958 20.9824C42.0958 32.571 32.7019 41.9649 21.1133 41.9649C17.4052 41.9713 13.7623 40.9899 10.5592 39.1218L0.139285 41.9649L2.97611 31.5408C1.10649 28.3366 0.124393 24.6922 0.130891 20.9824C0.130891 9.39384 9.52473 0 21.1133 0ZM13.9625 11.1207L13.5429 11.1375C13.2715 11.1562 13.0064 11.2274 12.7623 11.3473C12.5348 11.4764 12.3271 11.6375 12.1454 11.8257C11.8936 12.0628 11.751 12.2684 11.5978 12.4678C10.8217 13.4768 10.4038 14.7156 10.4102 15.9886C10.4144 17.0168 10.683 18.0176 11.1026 18.9534C11.9608 20.8461 13.3729 22.8499 15.2361 24.7068C15.6852 25.1537 16.1258 25.6028 16.6 26.0203C18.9153 28.0586 21.6742 29.5285 24.6573 30.3133L25.8491 30.4959C26.2372 30.5169 26.6254 30.4875 27.0157 30.4686C27.6267 30.4364 28.2232 30.271 28.7635 29.9839C29.0381 29.8419 29.3062 29.6879 29.5672 29.5223C29.5672 29.5223 29.656 29.4621 29.8294 29.3335C30.1127 29.1236 30.2869 28.9747 30.5219 28.7292C30.6981 28.5473 30.845 28.3361 30.9625 28.0955C31.1262 27.7535 31.2898 27.1009 31.357 26.5575C31.4073 26.142 31.3926 25.9154 31.3863 25.7748C31.3779 25.5503 31.1912 25.3174 30.9877 25.2188L29.7665 24.6712C29.7665 24.6712 27.941 23.8759 26.8248 23.3681C26.7079 23.3173 26.5828 23.2881 26.4555 23.2821C26.3119 23.2671 26.1668 23.2831 26.0299 23.3291C25.8931 23.3751 25.7677 23.4499 25.6623 23.5486C25.6518 23.5444 25.5113 23.664 23.9942 25.5021C23.9071 25.6191 23.7872 25.7075 23.6497 25.7561C23.5122 25.8046 23.3633 25.8112 23.2221 25.7748C23.0853 25.7384 22.9514 25.6921 22.8213 25.6363C22.5611 25.5272 22.4709 25.4853 22.2925 25.4097C21.0879 24.885 19.9728 24.1749 18.9878 23.3052C18.7234 23.0744 18.4779 22.8226 18.2261 22.5792C17.4007 21.7886 16.6813 20.8943 16.0859 19.9186L15.9621 19.7193C15.8746 19.5846 15.8028 19.4403 15.7481 19.2892C15.6684 18.9807 15.8761 18.7331 15.8761 18.7331C15.8761 18.7331 16.386 18.175 16.6231 17.8728C16.8539 17.5791 17.049 17.2937 17.1749 17.0902C17.4225 16.6915 17.5002 16.2824 17.3701 15.9655C16.7826 14.5303 16.1755 13.1028 15.5488 11.683C15.425 11.4019 15.0578 11.2004 14.7242 11.1606C14.6109 11.1466 14.4976 11.1354 14.3843 11.127C14.1025 11.1108 13.82 11.1136 13.5387 11.1354L13.9625 11.1207Z" fill="#196950"/>
</svg>
