<svg width="28" height="51" viewBox="0 0 28 51" fill="none" xmlns="http://www.w3.org/2000/svg">
<path d="M2.69611 12.7037C0.605569 11.8152 -0.282909 9.22813 0.971414 7.34665C3.50619 3.58368 7.73953 0.839844 13.3317 0.839844C19.4727 0.839844 23.6799 3.63594 25.8227 7.13759C27.6519 10.1427 28.7233 15.7611 25.9011 19.9421C22.7653 24.5675 19.7601 25.9786 18.14 28.9576C17.748 29.6632 17.5128 30.2381 17.356 31.414C17.1208 33.3216 15.5529 34.8111 13.6192 34.8111C11.3457 34.8111 9.49036 32.8512 9.75168 30.5778C9.90847 29.245 10.222 27.8601 10.9537 26.5535C12.9659 22.9212 16.8334 20.7784 19.0807 17.5642C21.4587 14.1932 20.126 7.89541 13.384 7.89541C10.3266 7.89541 8.34056 9.48945 7.11237 11.3971C6.19776 12.8866 4.29014 13.3569 2.69611 12.7037ZM18.5842 45.2638C18.5842 48.1383 16.2324 50.4902 13.3579 50.4902C10.4834 50.4902 8.13151 48.1383 8.13151 45.2638C8.13151 42.3893 10.4834 40.0375 13.3579 40.0375C16.2324 40.0375 18.5842 42.3893 18.5842 45.2638Z" fill="#196950"/>
</svg>
