<svg width="43" height="40" viewBox="0 0 43 40" fill="none" xmlns="http://www.w3.org/2000/svg">
<path d="M27.8041 0H15.1153C3.52056 0 0.765625 2.63714 0.765625 13.704V25.8431C0.765625 36.9298 3.50195 39.5669 15.0925 39.5669H27.7834C39.374 39.5669 42.131 36.9496 42.131 25.8629V13.7258C42.131 2.63516 39.3947 0 27.8041 0ZM34.1599 28.231H31.1423C30.0006 28.231 29.6573 27.3467 27.6097 25.3881C25.8227 23.7402 25.0678 23.5344 24.6149 23.5344C23.9902 23.5344 23.8186 23.6986 23.8186 24.5236V27.1192C23.8186 27.8215 23.5807 28.233 21.6634 28.233C19.803 28.1121 17.9991 27.5708 16.3999 26.6536C14.8007 25.7364 13.4517 24.4694 12.4638 22.9567C10.1191 20.1683 8.48861 16.894 7.70261 13.3954C7.70261 12.9621 7.87427 12.5704 8.73674 12.5704H11.7543C12.5299 12.5704 12.8092 12.9008 13.1111 13.6625C14.5755 17.7853 17.0739 21.3701 18.0874 21.3701C18.4762 21.3701 18.6458 21.2059 18.6458 20.278V16.0325C18.5176 14.0957 17.4421 13.9315 17.4421 13.2312C17.4559 13.0465 17.5444 12.8741 17.6888 12.7508C17.8332 12.6274 18.0222 12.5627 18.2156 12.5704H22.9561C23.6035 12.5704 23.8186 12.879 23.8186 13.6209V19.3502C23.8186 19.9694 24.0978 20.1752 24.2922 20.1752C24.681 20.1752 24.9809 19.9694 25.6924 19.2889C27.2206 17.5063 28.4691 15.5203 29.3988 13.3934C29.4944 13.1383 29.6743 12.92 29.9113 12.7714C30.1483 12.6229 30.4294 12.5524 30.7121 12.5704H33.7297C34.6336 12.5704 34.8259 13.0037 34.6336 13.6209C33.5364 15.9721 32.1787 18.2039 30.5839 20.278C30.2592 20.7528 30.1289 21.0001 30.5839 21.5561C30.8838 21.9893 31.9407 22.8341 32.6522 23.6373C33.6857 24.6241 34.5442 25.7654 35.1941 27.0163C35.4526 27.8195 35.0203 28.231 34.1599 28.231Z" fill="#196950"/>
</svg>
