<svg width="35" height="35" viewBox="0 0 35 35" fill="none" xmlns="http://www.w3.org/2000/svg">
<path d="M4.12632 17.0656C3.39796 16.2532 2.82089 15.286 2.42872 14.2206C2.03656 13.1552 1.83715 12.0128 1.84211 10.86C1.84211 8.52834 2.66694 6.29222 4.13515 4.64352C5.60336 2.99482 7.59469 2.06859 9.67105 2.06859C12.5816 2.06859 15.1237 3.84755 16.4684 6.4953H18.5316C19.2152 5.14879 20.2044 4.02977 21.3984 3.25217C22.5925 2.47458 23.9487 2.06619 25.3289 2.06859C27.4053 2.06859 29.3966 2.99482 30.8648 4.64352C32.3331 6.29222 33.1579 8.52834 33.1579 10.86C33.1579 13.2802 32.2368 15.5142 30.8737 17.0656L17.5 32.0627L4.12632 17.0656ZM32.1632 18.5343C33.9132 16.5485 35 13.8594 35 10.86C35 7.97973 33.9811 5.21746 32.1674 3.18083C30.3537 1.1442 27.8939 3.73416e-05 25.3289 3.73416e-05C22.1053 3.73416e-05 19.25 1.75831 17.5 4.4888C16.6068 3.09563 15.4306 1.96169 14.069 1.18103C12.7075 0.400383 11.1998 -0.00447699 9.67105 3.73416e-05C7.10613 3.73416e-05 4.64626 1.1442 2.83259 3.18083C1.01891 5.21746 0 7.97973 0 10.86C0 13.8594 1.08684 16.5485 2.83684 18.5343L17.5 35L32.1632 18.5343Z" fill="#196950"/>
</svg>
