<svg width="37" height="51" viewBox="0 0 37 51" fill="none" xmlns="http://www.w3.org/2000/svg">
<path d="M17.3411 0C17.9814 0 18.6218 0 19.2621 0C19.7669 0.0661432 20.2733 0.122291 20.7764 0.19991C25.9982 1.00498 30.1411 3.65219 33.0712 8.13536C36.1552 12.8537 36.8401 18.0257 35.3518 23.5032C34.3597 27.1545 32.7586 30.532 30.9311 33.7988C27.7868 39.4195 24.0184 44.5847 19.9131 49.4946C19.5701 49.9048 19.0979 50.2007 18.6858 50.5497C18.4296 50.5497 18.1735 50.5497 17.9173 50.5497C17.5263 50.2254 17.0757 49.9538 16.7531 49.5689C12.6108 44.626 8.8138 39.4213 5.64748 33.7563C3.82936 30.5033 2.24824 27.1357 1.24819 23.504C0.0960195 19.32 0.192544 15.1757 1.91353 11.205C4.61212 4.97888 9.29006 1.2772 15.8746 0.195591C16.361 0.115627 16.8521 0.0645389 17.3411 0ZM18.2368 27.5216C23.0781 27.623 27.1521 23.5149 27.2474 18.4356C27.3423 13.3704 23.3815 9.19291 18.3902 9.09407C13.53 8.99769 9.46438 13.0756 9.35657 18.1547C9.24852 23.2401 13.2078 27.4162 18.2368 27.5216Z" fill="#196950"/>
</svg>
