<svg width="51" height="50" viewBox="0 0 51 50" fill="none" xmlns="http://www.w3.org/2000/svg">
<path d="M11.0676 0C12.0616 0.212812 13.0169 0.513792 13.8123 1.17868C13.9243 1.27228 14.042 1.36045 14.1455 1.46275C16.3988 3.6887 18.6615 5.90547 20.8988 8.147C22.5608 9.81217 22.8493 12.1012 21.6787 14.005C21.151 14.8632 20.4057 15.4668 19.4495 15.8068C18.0672 16.2983 17 17.1355 16.4055 18.4964C16.0095 19.4032 15.9558 20.3278 16.2132 21.2856C16.8615 23.698 18.1828 25.736 19.7979 27.6057C21.8541 29.9858 24.2192 31.9966 27.0774 33.3897C28.0898 33.8831 29.1378 34.3396 30.2931 34.2881C32.4803 34.1903 34.0168 33.1433 34.7899 31.0827C35.1613 30.0932 35.782 29.3131 36.7043 28.7721C38.4529 27.7463 40.6703 27.8855 42.1716 29.2439C43.6163 30.5509 44.974 31.9527 46.3589 33.3238C47.4895 34.4433 48.6613 35.5292 49.7111 36.7196C51.1145 38.3112 51.1564 40.7993 49.9114 42.5217C49.6565 42.8743 49.3699 43.2101 49.0619 43.5186C47.7424 44.8404 46.3875 46.1283 45.0877 47.4687C43.9032 48.6903 42.4811 49.3751 40.7913 49.5495C40.715 49.5574 40.6426 49.6019 40.5684 49.6293C39.8824 49.6293 39.1963 49.6293 38.5102 49.6293C37.6017 49.4555 36.6821 49.3255 35.7869 49.1003C32.0934 48.1711 28.7575 46.456 25.5802 44.4269C20.3056 41.0585 15.6755 36.951 11.5414 32.2903C7.90656 28.1925 4.7611 23.7719 2.59395 18.7284C1.57486 16.3567 0.822471 13.909 0.747001 11.3034C0.680445 9.00488 1.2963 6.98559 3.08219 5.37887C4.24026 4.33692 5.33165 3.21887 6.41083 2.09551C7.41063 1.05488 8.49555 0.196265 9.98957 0C10.3488 0 10.7082 0 11.0676 0Z" fill="#196950"/>
</svg>
